<?xml version="1.0" encoding="UTF-8"?>
<!-- Generated by Pixelmator Pro 3.4.1 -->
<svg width="256" height="256" viewBox="0 0 256 256" xmlns="http://www.w3.org/2000/svg">
    <g id="alipay">
        <g id="-19">
            <g id="g1">
                <g id="g2">
                    <g id="-copy">
                        <g id="Mask" opacity="0">
                            <path id="Path" fill="#d8d8d8" fill-rule="evenodd" stroke="none" d="M 26.428572 26 L 1585.571411 26 L 1585.571411 230 L 26.428572 230 Z"/>
                        </g>
                        <g id="MaskLayers">
                            <g id="logo-">
                                <g id="g3">
                                    <path id="Combined-Shape" fill="#226bf3" stroke="none" d="M 231.15715 164.428574 C 231.15715 164.428574 224.600006 163.699997 194.728577 154.228577 C 186.714279 151.314301 175.785721 147.671432 163.399994 142.571426 C 170.685715 130.185715 176.514282 115.614288 180.15715 99.585724 L 140.085724 99.585724 L 140.085724 85.014282 L 189.628571 85.014282 L 189.628571 77 L 140.085724 77 L 140.085724 52.957153 L 119.685715 52.957153 C 116.042862 52.957153 116.042862 56.600006 116.042862 56.600006 L 116.042862 77 L 66.5 77 L 66.5 85.014282 L 116.771423 85.014282 L 116.771423 99.585724 L 75.242859 99.585724 L 75.242859 107.600006 L 155.385727 107.600006 C 152.47142 117.800003 148.828568 127.271423 143.728577 136.014282 C 117.5 127.271423 89.814285 120.714279 73.057144 125.085724 C 62.128571 128 54.842857 132.371429 50.471428 137.471436 C 30.799999 160.785706 45.371429 196.485718 85.442863 196.485718 C 109.48571 196.485718 132.800003 183.371429 151.014282 160.785706 C 177.97142 173.899994 231.15715 195.757141 231.15715 195.757141 L 231.15715 197.214294 C 231.15715 215.428574 216.585724 230 198.371429 230 L 59.214287 230 C 41 230 26.428572 215.428574 26.428572 197.214294 L 26.428572 58.785721 C 26.428572 40.571426 41 26 59.214287 26 L 198.371429 26 C 216.585724 26 231.15715 40.571426 231.15715 58.785721 L 231.15715 164.428574 L 231.15715 164.428574 Z M 81.800003 182.642853 C 49.742859 182.642853 40.271427 157.871429 56.299999 144.02858 C 61.400002 139.657135 70.871429 137.471436 75.971428 136.742859 C 94.914284 134.557129 112.400002 141.842865 132.800003 152.042847 C 118.957138 170.985718 100.01429 182.642853 81.800003 182.642853 Z"/>
                                    <path id="Fill-10" fill="#333333" stroke="none" d="M 532.785706 58.057144 L 592.528564 58.057144 L 592.528564 69.714279 L 613.657104 69.714279 L 613.657104 58.057144 L 613.657104 55.871429 L 613.657104 55.871429 C 613.657104 52.957153 611.471436 50.042847 607.828613 50.042847 L 573.585693 50.042847 L 573.585693 39.114273 L 551 39.114273 L 551 50.042847 L 510.928558 50.042847 L 510.928558 53.685715 L 510.928558 57.328568 L 510.928558 69.714279 L 532.057129 69.714279 L 532.785706 58.057144 L 532.785706 58.057144 Z"/>
                                    <path id="Fill-11" fill="#333333" stroke="none" d="M 403.828552 39.84285 L 381.971436 91.571426 L 398.728546 91.571426 L 398.728546 152.771423 L 416.942841 152.771423 L 416.942841 71.899994 L 410.385712 71.899994 L 424.228546 39.84285 Z"/>
                                    <path id="Fill-12" fill="#333333" stroke="none" d="M 615.842896 150.585724 L 609.285706 127.271423 C 608.557129 125.814285 607.828613 125.085724 605.642883 125.085724 L 588.157104 125.085724 L 593.257141 142.571426 L 572.128601 142.571426 L 572.128601 109.057144 L 612.928589 109.057144 L 612.928589 101.042847 L 572.128601 101.042847 L 572.128601 85.014282 L 612.928589 85.014282 L 612.928589 77 L 572.128601 77 L 551.728577 77 L 510.928558 77 L 510.928558 85.014282 L 551.728577 85.014282 L 551.728577 101.042847 L 510.928558 101.042847 L 510.928558 109.057144 L 551.728577 109.057144 L 551.728577 142.571426 L 510.928558 142.571426 L 510.928558 150.585724 L 615.842896 150.585724 Z"/>
                                    <path id="Fill-13" fill="#333333" stroke="none" d="M 446.814301 79.914276 L 430.785706 79.914276 L 443.171448 118.528564 L 462.114288 118.528564 L 450.457153 82.100006 C 449.728546 80.642853 448.271454 79.914276 446.814301 79.914276"/>
                                    <path id="Fill-14" fill="#333333" stroke="none" d="M 490.528564 41.300003 L 471.585693 41.300003 L 471.585693 60.97142 L 424.957153 60.97142 L 424.957153 68.985718 L 471.585693 68.985718 L 471.585693 140.385712 C 471.585693 141.842865 470.128571 143.300003 468.671448 143.300003 L 459.200012 143.300003 L 459.200012 151.314301 L 483.971436 151.314301 C 487.614288 151.314301 491.257141 147.671432 491.257141 144.02858 L 491.257141 143.300003 L 491.257141 68.985718 L 499.271454 68.985718 L 499.271454 60.97142 L 491.257141 60.97142 L 491.257141 41.300003 L 490.528564 41.300003 Z"/>
                                    <path id="Fill-15" fill="#333333" stroke="none" d="M 379.057159 145.485718 C 361.571442 138.928574 347.728546 132.371429 337.528564 125.814285 C 352.828552 114.15715 366.671448 98.857147 372.5 77.728577 L 336.071442 77.728577 L 336.071442 63.885727 L 378.328552 63.885727 L 378.328552 55.871429 L 336.071442 55.871429 L 336.071442 39.114273 L 317.128571 39.114273 L 317.128571 39.114273 C 314.942841 39.114273 313.485718 40.571426 313.485718 42.757141 L 313.485718 42.757141 L 313.485718 55.142853 L 271.228546 55.142853 L 271.228546 63.15715 L 313.485718 63.15715 L 313.485718 77 L 277.785706 77 L 277.785706 85.014282 L 348.457153 85.014282 C 348.457153 85.014282 344.814301 100.314285 325.142853 116.34285 C 307.657135 103.228577 301.828552 93.02858 301.828552 93.02858 L 282.885712 93.02858 C 290.899994 106.142853 301.100006 117.071426 313.485718 125.085724 C 302.557159 132.371429 288.714294 138.928574 270.5 144.02858 L 270.5 153.5 C 270.5 153.5 298.185699 148.399994 325.142853 132.371429 C 352.100006 148.399994 379.057159 153.5 379.057159 153.5 L 379.057159 145.485718 L 379.057159 145.485718 Z"/>
                                    <path id="Fill-16" fill="#333333" stroke="none" d="M 304.014282 181.914276 L 310.571442 201.585724 L 297.457153 201.585724 L 304.014282 181.914276 Z M 312.028564 207.414276 L 314.942841 216.885712 L 323.685699 216.885712 L 306.200012 169.52858 L 299.642853 169.52858 L 282.157135 216.885712 L 290.899994 216.885712 L 294.542847 207.414276 L 312.028564 207.414276 Z"/>
                                    <path id="Fill-17" fill="#333333" stroke="none" d="M 352.100006 169.52858 L 352.100006 216.885712 L 380.514282 216.885712 L 380.514282 210.328568 L 360.842865 210.328568 L 360.842865 169.52858 Z"/>
                                    <path id="Fill-18" fill="#333333" stroke="none" d="M 411.842865 216.885712 L 420.585693 216.885712 L 420.585693 169.52858 L 411.842865 169.52858 Z"/>
                                    <path id="Fill-19" fill="#333333" stroke="none" d="M 473.042847 192.114288 L 463.571442 192.114288 L 463.571442 176.085724 L 473.042847 176.085724 C 477.414307 176.085724 480.328552 180.457153 480.328552 184.100006 C 480.328552 187.742859 477.414307 192.114288 473.042847 192.114288 M 473.042847 169.52858 L 454.828552 169.52858 L 454.828552 216.885712 L 463.571442 216.885712 L 463.571442 198.671432 L 473.771454 198.671432 C 483.242859 198.671432 489.071442 192.84285 489.071442 184.100006 C 489.071442 175.357147 482.514282 169.52858 473.042847 169.52858"/>
                                    <path id="Fill-20" fill="#333333" stroke="none" d="M 530.599976 181.914276 L 537.157104 201.585724 L 524.042908 201.585724 L 530.599976 181.914276 Z M 538.614319 207.414276 L 541.528564 216.885712 L 551 216.885712 L 533.514282 169.52858 L 526.957092 169.52858 L 509.471436 216.885712 L 518.214294 216.885712 L 521.857117 207.414276 L 538.614319 207.414276 Z"/>
                                    <path id="Fill-21" fill="#333333" stroke="none" d="M 598.357117 169.52858 L 588.885681 189.928574 L 579.414307 169.52858 L 569.942871 169.52858 L 584.514282 197.214294 L 584.514282 216.885712 L 593.257141 216.885712 L 593.257141 197.214294 L 593.257141 197.214294 L 607.099976 169.52858 Z"/>
                                </g>
                            </g>
                        </g>
                    </g>
                </g>
            </g>
        </g>
    </g>
</svg>
