<svg xmlns="http://www.w3.org/2000/svg" width="24" height="24" viewBox="0 0 24 24"><path fill="#50cd89" d="M4 16.577v1.808q0 .23.192.423t.423.192h14.77q.23 0 .423-.192t.192-.423v-1.808zm.616-9.538H7.95q-.125-.225-.21-.475q-.086-.25-.086-.525q0-.847.577-1.424q.577-.576 1.423-.576q.508 0 .939.266t.753.66l.615.843l.616-.843q.315-.407.753-.667t.943-.26q.842 0 1.42.577q.576.577.576 1.424q0 .275-.076.525t-.22.475h3.411q.691 0 1.153.462T21 8.654v9.73q0 .691-.463 1.154T19.385 20H4.615q-.69 0-1.152-.462T3 18.384v-9.73q0-.69.463-1.153t1.152-.462M4 14.423h16v-5.77q0-.23-.192-.422t-.424-.192h-5.83l1.692 2.338q.116.177.095.372t-.199.31t-.372.092t-.31-.195l-2.498-3.402l-2.498 3.402q-.116.171-.311.195t-.372-.092t-.201-.31t.091-.372l1.687-2.339H4.615q-.23 0-.423.193T4 8.654zm5.654-7.384q.425 0 .712-.288t.288-.712t-.288-.713t-.712-.288t-.713.288t-.287.713t.287.712t.713.288m4.615 0q.425 0 .713-.288t.287-.712t-.287-.713t-.713-.288t-.712.288t-.288.713t.288.712t.712.288"/></svg>