<svg 
  width="40" height="40" 
  xmlns="http://www.w3.org/2000/svg"
  viewBox="0 0 36 41"
  fillRule="evenodd"
  clip-rule="evenodd"
  stroke-linejoin="round"
  stroke-miterlimit="2"
  class="h-12 lg:h-8 lg:mr-2 mb-5 lg:mb-0"
>
  <path d="M16.19 1.034a3.508 3.508 0 0 1 3.501 0L33.936 9.26a3.505 3.505 0 0 1 1.751 3.032v16.451c0 1.25-.668 2.406-1.751 3.032L19.691 40a3.508 3.508 0 0 1-3.501 0 66030.71 66030.71 0 0 0-14.246-8.225 3.507 3.507 0 0 1-1.75-3.032V12.292c0-1.249.668-2.407 1.75-3.032L16.19 1.034z" fill="#20c997"/>
  <path d="m0 30.766 9.437-10.249 8.529 20.493L0 30.766z" fill="#F6C000"/>
  <path d="M9.437 20.517.124 10.198 0 30.766l9.437-10.249z" fill="#20c997"/>
  <path d="M9.437 20.517 17.966.023.124 10.198l9.313 10.32v-.001z" fill="#7239EA"/>
  <path d="m17.966.023 17.747 30.741L9.437 20.517" fill="#464852"/>
  <path d="m17.966 41.045 17.747-10.279L9.437 20.517l8.529 20.528z" fill="#107EFF"/>
  <path d="M35.713 30.764V10.27L17.966.023l17.747 30.741z" fill="#FF3767"/>
  <path d="m15.375 12.445 8.595 8.595-8.595 8.596-2.253-2.253 6.342-6.343-6.342-6.342 2.253-2.253z" fill="#1a67fd" fillOpacity="0.5"/>
  <path d="m23.97 20.03-2.253-2.254-8.595 8.596 2.253 2.253 8.595-8.596v.001z" fill="#d6ffff"/><path d="m15.375 11.434-2.253 2.253 8.595 8.595 2.253-2.253-8.595-8.595z" fill="#d6ffff"/>
</svg>